<svg width="444" height="176" viewBox="0 0 444 176" fill="none" xmlns="http://www.w3.org/2000/svg">
<path d="M69.2239 92.768C69.0799 94.136 68.9719 95.468 68.8999 96.764C68.8639 98.024 68.8459 98.996 68.8459 99.68C68.8459 100.544 68.8639 101.354 68.8999 102.11C68.9359 102.866 68.9719 103.532 69.0079 104.108H67.7659C67.5139 101.588 67.1719 99.608 66.7399 98.168C66.3079 96.692 65.5519 95.63 64.4719 94.982C63.3919 94.334 61.7179 94.01 59.4499 94.01H56.5339V124.736C56.5339 126.176 56.6599 127.256 56.9119 127.976C57.1999 128.696 57.7399 129.182 58.5319 129.434C59.3239 129.686 60.4759 129.848 61.9879 129.92V131C61.0519 130.928 59.8639 130.892 58.4239 130.892C56.9839 130.856 55.5259 130.838 54.0499 130.838C52.4299 130.838 50.8999 130.856 49.4599 130.892C48.0559 130.892 46.9219 130.928 46.0579 131V129.92C47.5699 129.848 48.7219 129.686 49.5139 129.434C50.3059 129.182 50.8279 128.696 51.0799 127.976C51.3679 127.256 51.5119 126.176 51.5119 124.736V94.01H48.5959C46.3639 94.01 44.6899 94.334 43.5739 94.982C42.4939 95.63 41.7379 96.692 41.3059 98.168C40.8739 99.608 40.5319 101.588 40.2799 104.108H39.0379C39.1099 103.532 39.1459 102.866 39.1459 102.11C39.1819 101.354 39.1999 100.544 39.1999 99.68C39.1999 98.996 39.1639 98.024 39.0919 96.764C39.0559 95.468 38.9659 94.136 38.8219 92.768C40.3339 92.804 41.9719 92.84 43.7359 92.876C45.5359 92.912 47.3359 92.93 49.1359 92.93C50.9359 92.93 52.5739 92.93 54.0499 92.93C55.5259 92.93 57.1459 92.93 58.9099 92.93C60.7099 92.93 62.5099 92.912 64.3099 92.876C66.1099 92.84 67.7479 92.804 69.2239 92.768ZM79.2906 131.378C77.8146 131.378 76.5366 131.108 75.4566 130.568C74.3766 129.992 73.5486 129.2 72.9726 128.192C72.4326 127.184 72.1626 126.014 72.1626 124.682C72.1626 123.098 72.5226 121.802 73.2426 120.794C73.9986 119.786 74.9526 118.976 76.1046 118.364C77.2566 117.752 78.4626 117.248 79.7226 116.852C81.0186 116.42 82.2426 116.024 83.3946 115.664C84.5466 115.268 85.4826 114.818 86.2026 114.314C86.9586 113.81 87.3366 113.144 87.3366 112.316V108.968C87.3366 107.456 87.1026 106.304 86.6346 105.512C86.2026 104.72 85.6086 104.198 84.8526 103.946C84.0966 103.658 83.2506 103.514 82.3146 103.514C81.4146 103.514 80.4426 103.64 79.3986 103.892C78.3906 104.144 77.5806 104.666 76.9686 105.458C77.6526 105.602 78.2466 105.962 78.7506 106.538C79.2546 107.114 79.5066 107.852 79.5066 108.752C79.5066 109.652 79.2186 110.372 78.6426 110.912C78.0666 111.416 77.3286 111.668 76.4286 111.668C75.3846 111.668 74.6106 111.344 74.1066 110.696C73.6386 110.012 73.4046 109.256 73.4046 108.428C73.4046 107.492 73.6386 106.736 74.1066 106.16C74.5746 105.584 75.1686 105.044 75.8886 104.54C76.7166 103.964 77.7786 103.478 79.0746 103.082C80.4066 102.65 81.9006 102.434 83.5566 102.434C85.0326 102.434 86.2926 102.614 87.3366 102.974C88.3806 103.298 89.2446 103.784 89.9286 104.432C90.8646 105.296 91.4766 106.358 91.7646 107.618C92.0526 108.842 92.1966 110.318 92.1966 112.046V127.058C92.1966 127.958 92.3226 128.606 92.5746 129.002C92.8626 129.398 93.2946 129.596 93.8706 129.596C94.2666 129.596 94.6446 129.506 95.0046 129.326C95.3646 129.146 95.7966 128.858 96.3006 128.462L96.8946 129.38C96.1386 129.956 95.4186 130.442 94.7346 130.838C94.0506 131.198 93.1326 131.378 91.9806 131.378C90.9366 131.378 90.0726 131.198 89.3886 130.838C88.7046 130.478 88.1826 129.956 87.8226 129.272C87.4986 128.552 87.3366 127.652 87.3366 126.572C86.3646 128.192 85.1946 129.398 83.8266 130.19C82.4946 130.982 80.9826 131.378 79.2906 131.378ZM81.2346 129.218C82.4226 129.218 83.5206 128.876 84.5286 128.192C85.5726 127.508 86.5086 126.482 87.3366 125.114V114.53C86.9046 115.142 86.2746 115.664 85.4466 116.096C84.6186 116.492 83.7186 116.906 82.7466 117.338C81.7746 117.734 80.8386 118.22 79.9386 118.796C79.0746 119.336 78.3546 120.056 77.7786 120.956C77.2026 121.856 76.9146 123.026 76.9146 124.466C76.9146 125.906 77.2926 127.058 78.0486 127.922C78.8406 128.786 79.9026 129.218 81.2346 129.218ZM106.995 88.718V108.914C107.931 106.466 109.227 104.774 110.883 103.838C112.575 102.902 114.339 102.434 116.175 102.434C117.543 102.434 118.677 102.614 119.577 102.974C120.513 103.334 121.287 103.838 121.899 104.486C122.583 105.206 123.069 106.106 123.357 107.186C123.645 108.266 123.789 109.724 123.789 111.56V125.978C123.789 127.49 124.095 128.516 124.707 129.056C125.355 129.596 126.417 129.866 127.893 129.866V131C127.281 130.964 126.345 130.928 125.085 130.892C123.825 130.82 122.601 130.784 121.413 130.784C120.225 130.784 119.055 130.82 117.903 130.892C116.787 130.928 115.941 130.964 115.365 131V129.866C116.661 129.866 117.579 129.596 118.119 129.056C118.659 128.516 118.929 127.49 118.929 125.978V110.372C118.929 109.256 118.839 108.23 118.659 107.294C118.479 106.358 118.065 105.602 117.417 105.026C116.805 104.45 115.851 104.162 114.555 104.162C113.079 104.162 111.765 104.576 110.613 105.404C109.497 106.232 108.615 107.384 107.967 108.86C107.319 110.336 106.995 112.028 106.995 113.936V125.978C106.995 127.49 107.265 128.516 107.805 129.056C108.345 129.596 109.263 129.866 110.559 129.866V131C109.983 130.964 109.119 130.928 107.967 130.892C106.851 130.82 105.699 130.784 104.511 130.784C103.323 130.784 102.099 130.82 100.839 130.892C99.5792 130.928 98.6432 130.964 98.0312 131V129.866C99.5072 129.866 100.551 129.596 101.163 129.056C101.811 128.516 102.135 127.49 102.135 125.978V95.198C102.135 93.578 101.847 92.39 101.271 91.634C100.695 90.842 99.6152 90.446 98.0312 90.446V89.312C99.1832 89.42 100.299 89.474 101.379 89.474C102.423 89.474 103.413 89.42 104.349 89.312C105.321 89.168 106.203 88.97 106.995 88.718ZM137.931 131.378C136.455 131.378 135.177 131.108 134.097 130.568C133.017 129.992 132.189 129.2 131.613 128.192C131.073 127.184 130.803 126.014 130.803 124.682C130.803 123.098 131.163 121.802 131.883 120.794C132.639 119.786 133.593 118.976 134.745 118.364C135.897 117.752 137.103 117.248 138.363 116.852C139.659 116.42 140.883 116.024 142.035 115.664C143.187 115.268 144.123 114.818 144.843 114.314C145.599 113.81 145.977 113.144 145.977 112.316V108.968C145.977 107.456 145.743 106.304 145.275 105.512C144.843 104.72 144.249 104.198 143.493 103.946C142.737 103.658 141.891 103.514 140.955 103.514C140.055 103.514 139.083 103.64 138.039 103.892C137.031 104.144 136.221 104.666 135.609 105.458C136.293 105.602 136.887 105.962 137.391 106.538C137.895 107.114 138.147 107.852 138.147 108.752C138.147 109.652 137.859 110.372 137.283 110.912C136.707 111.416 135.969 111.668 135.069 111.668C134.025 111.668 133.251 111.344 132.747 110.696C132.279 110.012 132.045 109.256 132.045 108.428C132.045 107.492 132.279 106.736 132.747 106.16C133.215 105.584 133.809 105.044 134.529 104.54C135.357 103.964 136.419 103.478 137.715 103.082C139.047 102.65 140.541 102.434 142.197 102.434C143.673 102.434 144.933 102.614 145.977 102.974C147.021 103.298 147.885 103.784 148.569 104.432C149.505 105.296 150.117 106.358 150.405 107.618C150.693 108.842 150.837 110.318 150.837 112.046V127.058C150.837 127.958 150.963 128.606 151.215 129.002C151.503 129.398 151.935 129.596 152.511 129.596C152.907 129.596 153.285 129.506 153.645 129.326C154.005 129.146 154.437 128.858 154.941 128.462L155.535 129.38C154.779 129.956 154.059 130.442 153.375 130.838C152.691 131.198 151.773 131.378 150.621 131.378C149.577 131.378 148.713 131.198 148.029 130.838C147.345 130.478 146.823 129.956 146.463 129.272C146.139 128.552 145.977 127.652 145.977 126.572C145.005 128.192 143.835 129.398 142.467 130.19C141.135 130.982 139.623 131.378 137.931 131.378ZM139.875 129.218C141.063 129.218 142.161 128.876 143.169 128.192C144.213 127.508 145.149 126.482 145.977 125.114V114.53C145.545 115.142 144.915 115.664 144.087 116.096C143.259 116.492 142.359 116.906 141.387 117.338C140.415 117.734 139.479 118.22 138.579 118.796C137.715 119.336 136.995 120.056 136.419 120.956C135.843 121.856 135.555 123.026 135.555 124.466C135.555 125.906 135.933 127.058 136.689 127.922C137.481 128.786 138.543 129.218 139.875 129.218ZM175.302 102.434C176.67 102.434 177.804 102.614 178.704 102.974C179.64 103.334 180.414 103.838 181.026 104.486C181.71 105.206 182.196 106.106 182.484 107.186C182.772 108.266 182.916 109.724 182.916 111.56V125.978C182.916 127.49 183.222 128.516 183.834 129.056C184.482 129.596 185.544 129.866 187.02 129.866V131C186.408 130.964 185.472 130.928 184.212 130.892C182.952 130.82 181.728 130.784 180.54 130.784C179.352 130.784 178.182 130.82 177.03 130.892C175.914 130.928 175.068 130.964 174.492 131V129.866C175.788 129.866 176.706 129.596 177.246 129.056C177.786 128.516 178.056 127.49 178.056 125.978V110.372C178.056 109.256 177.966 108.23 177.786 107.294C177.606 106.358 177.192 105.602 176.544 105.026C175.932 104.45 174.978 104.162 173.682 104.162C172.17 104.162 170.838 104.594 169.686 105.458C168.57 106.322 167.688 107.51 167.04 109.022C166.428 110.498 166.122 112.154 166.122 113.99V125.978C166.122 127.49 166.392 128.516 166.932 129.056C167.472 129.596 168.39 129.866 169.686 129.866V131C169.11 130.964 168.246 130.928 167.094 130.892C165.978 130.82 164.826 130.784 163.638 130.784C162.45 130.784 161.226 130.82 159.966 130.892C158.706 130.928 157.77 130.964 157.158 131V129.866C158.634 129.866 159.678 129.596 160.29 129.056C160.938 128.516 161.262 127.49 161.262 125.978V109.076C161.262 107.456 160.974 106.268 160.398 105.512C159.822 104.72 158.742 104.324 157.158 104.324V103.19C158.31 103.298 159.426 103.352 160.506 103.352C161.55 103.352 162.54 103.298 163.476 103.19C164.448 103.046 165.33 102.848 166.122 102.596V108.968C167.058 106.52 168.354 104.828 170.01 103.892C171.702 102.92 173.466 102.434 175.302 102.434ZM197.047 131.378C195.571 131.378 194.293 131.108 193.213 130.568C192.133 129.992 191.305 129.2 190.729 128.192C190.189 127.184 189.919 126.014 189.919 124.682C189.919 123.098 190.279 121.802 190.999 120.794C191.755 119.786 192.709 118.976 193.861 118.364C195.013 117.752 196.219 117.248 197.479 116.852C198.775 116.42 199.999 116.024 201.151 115.664C202.303 115.268 203.239 114.818 203.959 114.314C204.715 113.81 205.093 113.144 205.093 112.316V108.968C205.093 107.456 204.859 106.304 204.391 105.512C203.959 104.72 203.365 104.198 202.609 103.946C201.853 103.658 201.007 103.514 200.071 103.514C199.171 103.514 198.199 103.64 197.155 103.892C196.147 104.144 195.337 104.666 194.725 105.458C195.409 105.602 196.003 105.962 196.507 106.538C197.011 107.114 197.263 107.852 197.263 108.752C197.263 109.652 196.975 110.372 196.399 110.912C195.823 111.416 195.085 111.668 194.185 111.668C193.141 111.668 192.367 111.344 191.863 110.696C191.395 110.012 191.161 109.256 191.161 108.428C191.161 107.492 191.395 106.736 191.863 106.16C192.331 105.584 192.925 105.044 193.645 104.54C194.473 103.964 195.535 103.478 196.831 103.082C198.163 102.65 199.657 102.434 201.312 102.434C202.789 102.434 204.049 102.614 205.093 102.974C206.137 103.298 207.001 103.784 207.685 104.432C208.621 105.296 209.233 106.358 209.521 107.618C209.809 108.842 209.953 110.318 209.953 112.046V127.058C209.953 127.958 210.079 128.606 210.331 129.002C210.619 129.398 211.051 129.596 211.627 129.596C212.023 129.596 212.401 129.506 212.761 129.326C213.121 129.146 213.553 128.858 214.057 128.462L214.651 129.38C213.895 129.956 213.175 130.442 212.491 130.838C211.807 131.198 210.889 131.378 209.737 131.378C208.693 131.378 207.829 131.198 207.145 130.838C206.461 130.478 205.939 129.956 205.579 129.272C205.255 128.552 205.093 127.652 205.093 126.572C204.121 128.192 202.951 129.398 201.583 130.19C200.251 130.982 198.739 131.378 197.047 131.378ZM198.991 129.218C200.179 129.218 201.277 128.876 202.285 128.192C203.329 127.508 204.265 126.482 205.093 125.114V114.53C204.661 115.142 204.031 115.664 203.203 116.096C202.375 116.492 201.475 116.906 200.503 117.338C199.531 117.734 198.595 118.22 197.695 118.796C196.831 119.336 196.111 120.056 195.535 120.956C194.959 121.856 194.671 123.026 194.671 124.466C194.671 125.906 195.049 127.058 195.805 127.922C196.597 128.786 197.659 129.218 198.991 129.218ZM234.417 102.434C235.785 102.434 236.919 102.614 237.819 102.974C238.755 103.334 239.529 103.838 240.141 104.486C240.825 105.206 241.311 106.106 241.599 107.186C241.887 108.266 242.031 109.724 242.031 111.56V125.978C242.031 127.49 242.337 128.516 242.949 129.056C243.597 129.596 244.659 129.866 246.135 129.866V131C245.523 130.964 244.587 130.928 243.327 130.892C242.067 130.82 240.843 130.784 239.655 130.784C238.467 130.784 237.297 130.82 236.145 130.892C235.029 130.928 234.183 130.964 233.607 131V129.866C234.903 129.866 235.821 129.596 236.361 129.056C236.901 128.516 237.171 127.49 237.171 125.978V110.372C237.171 109.256 237.081 108.23 236.901 107.294C236.721 106.358 236.307 105.602 235.659 105.026C235.047 104.45 234.093 104.162 232.797 104.162C231.285 104.162 229.953 104.594 228.801 105.458C227.685 106.322 226.803 107.51 226.155 109.022C225.543 110.498 225.237 112.154 225.237 113.99V125.978C225.237 127.49 225.507 128.516 226.047 129.056C226.587 129.596 227.505 129.866 228.801 129.866V131C228.225 130.964 227.361 130.928 226.209 130.892C225.093 130.82 223.941 130.784 222.753 130.784C221.565 130.784 220.341 130.82 219.081 130.892C217.821 130.928 216.885 130.964 216.273 131V129.866C217.749 129.866 218.793 129.596 219.405 129.056C220.053 128.516 220.377 127.49 220.377 125.978V109.076C220.377 107.456 220.089 106.268 219.513 105.512C218.937 104.72 217.857 104.324 216.273 104.324V103.19C217.425 103.298 218.541 103.352 219.621 103.352C220.665 103.352 221.655 103.298 222.591 103.19C223.563 103.046 224.445 102.848 225.237 102.596V108.968C226.173 106.52 227.469 104.828 229.125 103.892C230.817 102.92 232.581 102.434 234.417 102.434ZM266.487 92.012C268.863 92.012 270.807 92.372 272.319 93.092C273.867 93.776 275.235 94.586 276.423 95.522C277.143 96.062 277.683 96.134 278.043 95.738C278.439 95.306 278.709 94.316 278.853 92.768H280.095C280.023 94.1 279.969 95.72 279.933 97.628C279.897 99.536 279.879 102.056 279.879 105.188H278.637C278.385 103.64 278.151 102.416 277.935 101.516C277.719 100.58 277.449 99.788 277.125 99.14C276.837 98.492 276.441 97.844 275.937 97.196C274.821 95.72 273.417 94.658 271.725 94.01C270.033 93.326 268.251 92.984 266.379 92.984C264.615 92.984 263.013 93.434 261.573 94.334C260.169 95.198 258.945 96.458 257.901 98.114C256.893 99.77 256.101 101.768 255.525 104.108C254.985 106.448 254.715 109.076 254.715 111.992C254.715 115.016 255.021 117.698 255.633 120.038C256.245 122.342 257.091 124.286 258.171 125.87C259.287 127.454 260.583 128.66 262.059 129.488C263.571 130.28 265.191 130.676 266.919 130.676C268.539 130.676 270.231 130.352 271.995 129.704C273.759 129.056 275.145 128.012 276.153 126.572C276.945 125.528 277.485 124.394 277.773 123.17C278.097 121.946 278.385 120.236 278.637 118.04H279.879C279.879 121.316 279.897 123.962 279.933 125.978C279.969 127.958 280.023 129.632 280.095 131H278.853C278.709 129.452 278.457 128.48 278.097 128.084C277.773 127.688 277.215 127.742 276.423 128.246C275.091 129.182 273.669 130.01 272.157 130.73C270.681 131.414 268.773 131.756 266.433 131.756C263.013 131.756 260.007 130.982 257.415 129.434C254.859 127.886 252.861 125.654 251.421 122.738C250.017 119.822 249.315 116.312 249.315 112.208C249.315 108.176 250.053 104.648 251.529 101.624C253.005 98.6 255.021 96.242 257.577 94.55C260.169 92.858 263.139 92.012 266.487 92.012ZM301.991 102.434C302.963 102.434 303.809 102.632 304.529 103.028C305.285 103.424 305.861 103.946 306.257 104.594C306.689 105.206 306.905 105.908 306.905 106.7C306.905 107.6 306.617 108.392 306.041 109.076C305.501 109.76 304.763 110.102 303.827 110.102C303.071 110.102 302.405 109.868 301.829 109.4C301.253 108.896 300.965 108.194 300.965 107.294C300.965 106.61 301.145 106.034 301.505 105.566C301.901 105.062 302.333 104.666 302.801 104.378C302.549 104.018 302.171 103.838 301.667 103.838C300.551 103.838 299.525 104.18 298.589 104.864C297.653 105.512 296.861 106.358 296.213 107.402C295.565 108.446 295.061 109.562 294.701 110.75C294.341 111.902 294.161 112.982 294.161 113.99V125.438C294.161 127.202 294.665 128.39 295.673 129.002C296.717 129.578 298.121 129.866 299.885 129.866V131C299.057 130.964 297.887 130.928 296.375 130.892C294.863 130.82 293.261 130.784 291.569 130.784C290.345 130.784 289.121 130.82 287.897 130.892C286.709 130.928 285.809 130.964 285.197 131V129.866C286.673 129.866 287.717 129.596 288.329 129.056C288.977 128.516 289.301 127.49 289.301 125.978V109.076C289.301 107.456 289.013 106.268 288.437 105.512C287.861 104.72 286.781 104.324 285.197 104.324V103.19C286.349 103.298 287.465 103.352 288.545 103.352C289.589 103.352 290.579 103.298 291.515 103.19C292.487 103.046 293.369 102.848 294.161 102.596V109.346C294.557 108.302 295.115 107.258 295.835 106.214C296.591 105.134 297.491 104.234 298.535 103.514C299.579 102.794 300.731 102.434 301.991 102.434ZM316.912 131.378C315.436 131.378 314.158 131.108 313.078 130.568C311.998 129.992 311.17 129.2 310.594 128.192C310.054 127.184 309.784 126.014 309.784 124.682C309.784 123.098 310.144 121.802 310.864 120.794C311.62 119.786 312.574 118.976 313.726 118.364C314.878 117.752 316.084 117.248 317.344 116.852C318.64 116.42 319.864 116.024 321.016 115.664C322.168 115.268 323.104 114.818 323.824 114.314C324.58 113.81 324.958 113.144 324.958 112.316V108.968C324.958 107.456 324.724 106.304 324.256 105.512C323.824 104.72 323.23 104.198 322.474 103.946C321.718 103.658 320.872 103.514 319.936 103.514C319.036 103.514 318.064 103.64 317.02 103.892C316.012 104.144 315.202 104.666 314.59 105.458C315.274 105.602 315.868 105.962 316.372 106.538C316.876 107.114 317.128 107.852 317.128 108.752C317.128 109.652 316.84 110.372 316.264 110.912C315.688 111.416 314.95 111.668 314.05 111.668C313.006 111.668 312.232 111.344 311.728 110.696C311.26 110.012 311.026 109.256 311.026 108.428C311.026 107.492 311.26 106.736 311.728 106.16C312.196 105.584 312.79 105.044 313.51 104.54C314.338 103.964 315.4 103.478 316.696 103.082C318.028 102.65 319.522 102.434 321.178 102.434C322.654 102.434 323.914 102.614 324.958 102.974C326.002 103.298 326.866 103.784 327.55 104.432C328.486 105.296 329.098 106.358 329.386 107.618C329.674 108.842 329.818 110.318 329.818 112.046V127.058C329.818 127.958 329.944 128.606 330.196 129.002C330.484 129.398 330.916 129.596 331.492 129.596C331.888 129.596 332.266 129.506 332.626 129.326C332.986 129.146 333.418 128.858 333.922 128.462L334.516 129.38C333.76 129.956 333.04 130.442 332.356 130.838C331.672 131.198 330.754 131.378 329.602 131.378C328.558 131.378 327.694 131.198 327.01 130.838C326.326 130.478 325.804 129.956 325.444 129.272C325.12 128.552 324.958 127.652 324.958 126.572C323.986 128.192 322.816 129.398 321.448 130.19C320.116 130.982 318.604 131.378 316.912 131.378ZM318.856 129.218C320.044 129.218 321.142 128.876 322.15 128.192C323.194 127.508 324.13 126.482 324.958 125.114V114.53C324.526 115.142 323.896 115.664 323.068 116.096C322.24 116.492 321.34 116.906 320.368 117.338C319.396 117.734 318.46 118.22 317.56 118.796C316.696 119.336 315.976 120.056 315.4 120.956C314.824 121.856 314.536 123.026 314.536 124.466C314.536 125.906 314.914 127.058 315.67 127.922C316.462 128.786 317.524 129.218 318.856 129.218ZM349.476 88.772C350.484 88.772 351.366 88.916 352.122 89.204C352.914 89.456 353.598 89.798 354.174 90.23C354.714 90.662 355.128 91.166 355.416 91.742C355.704 92.318 355.848 92.93 355.848 93.578C355.848 94.406 355.578 95.09 355.038 95.63C354.498 96.17 353.814 96.44 352.986 96.44C352.194 96.44 351.492 96.188 350.88 95.684C350.304 95.144 350.016 94.424 350.016 93.524C350.016 92.768 350.214 92.156 350.61 91.688C351.042 91.22 351.6 90.914 352.284 90.77C352.176 90.446 351.888 90.176 351.42 89.96C350.988 89.708 350.394 89.582 349.638 89.582C348.81 89.582 348.09 89.762 347.478 90.122C346.902 90.482 346.452 90.968 346.128 91.58C345.696 92.336 345.426 93.47 345.318 94.982C345.21 96.458 345.156 98.744 345.156 101.84V103.244H350.934V104.324H345.156V125.438C345.156 127.202 345.66 128.39 346.668 129.002C347.712 129.578 349.116 129.866 350.88 129.866V131C350.052 130.964 348.882 130.928 347.37 130.892C345.858 130.82 344.256 130.784 342.564 130.784C341.34 130.784 340.116 130.82 338.892 130.892C337.704 130.928 336.804 130.964 336.192 131V129.866C337.668 129.866 338.712 129.596 339.324 129.056C339.972 128.516 340.296 127.49 340.296 125.978V104.324H335.976V103.244H340.296C340.296 101.12 340.386 99.338 340.566 97.898C340.746 96.458 341.034 95.234 341.43 94.226C341.826 93.182 342.366 92.264 343.05 91.472C343.77 90.644 344.688 89.996 345.804 89.528C346.92 89.024 348.144 88.772 349.476 88.772ZM362.762 94.226V103.244H370.754V104.324H362.762V125.222C362.762 126.914 363.068 128.102 363.68 128.786C364.292 129.47 365.138 129.812 366.218 129.812C367.298 129.812 368.234 129.38 369.026 128.516C369.818 127.616 370.502 126.122 371.078 124.034L372.158 124.304C371.798 126.392 371.078 128.156 369.998 129.596C368.954 131.036 367.334 131.756 365.138 131.756C363.914 131.756 362.906 131.594 362.114 131.27C361.322 130.982 360.62 130.55 360.008 129.974C359.216 129.146 358.658 128.156 358.334 127.004C358.046 125.852 357.902 124.322 357.902 122.414V104.324H352.718V103.244H357.902V94.982C358.802 94.946 359.666 94.874 360.494 94.766C361.322 94.658 362.078 94.478 362.762 94.226ZM382.824 102.434C384.264 102.434 385.488 102.668 386.496 103.136C387.504 103.604 388.242 104.036 388.71 104.432C389.898 105.404 390.618 104.756 390.87 102.488H392.112C392.04 103.496 391.986 104.702 391.95 106.106C391.914 107.474 391.896 109.328 391.896 111.668H390.654C390.438 110.336 390.06 109.04 389.52 107.78C389.016 106.52 388.26 105.494 387.252 104.702C386.244 103.874 384.93 103.46 383.31 103.46C382.05 103.46 380.988 103.82 380.124 104.54C379.296 105.224 378.882 106.25 378.882 107.618C378.882 108.698 379.206 109.634 379.854 110.426C380.502 111.182 381.348 111.902 382.392 112.586C383.436 113.234 384.57 113.954 385.794 114.746C387.162 115.61 388.404 116.492 389.52 117.392C390.636 118.292 391.518 119.282 392.166 120.362C392.85 121.442 393.192 122.72 393.192 124.196C393.192 125.852 392.76 127.238 391.896 128.354C391.032 129.47 389.898 130.316 388.494 130.892C387.126 131.468 385.614 131.756 383.958 131.756C383.166 131.756 382.41 131.684 381.69 131.54C381.006 131.432 380.34 131.252 379.692 131C379.332 130.82 378.954 130.604 378.558 130.352C378.198 130.1 377.838 129.83 377.478 129.542C377.118 129.254 376.794 129.272 376.506 129.596C376.218 129.884 376.002 130.478 375.858 131.378H374.616C374.688 130.226 374.742 128.822 374.778 127.166C374.814 125.51 374.832 123.314 374.832 120.578H376.074C376.326 122.594 376.686 124.358 377.154 125.87C377.622 127.382 378.36 128.57 379.368 129.434C380.376 130.262 381.78 130.676 383.58 130.676C384.3 130.676 385.02 130.514 385.74 130.19C386.496 129.866 387.126 129.326 387.63 128.57C388.134 127.814 388.386 126.806 388.386 125.546C388.386 123.962 387.81 122.666 386.658 121.658C385.506 120.65 384.048 119.588 382.284 118.472C380.988 117.644 379.764 116.816 378.612 115.988C377.496 115.16 376.578 114.224 375.858 113.18C375.174 112.136 374.832 110.876 374.832 109.4C374.832 107.78 375.192 106.466 375.912 105.458C376.668 104.414 377.658 103.658 378.882 103.19C380.106 102.686 381.42 102.434 382.824 102.434Z" fill="black"/>
<path d="M443.305 119.033C265.298 35.485 295.363 35.3198 326.319 3.27941L12.2574 86.3232" stroke="black" stroke-width="1.5"/>
</svg>
